<svg width="138" height="94" viewBox="0 0 138 94" fill="none" xmlns="http://www.w3.org/2000/svg">
<path fill-rule="evenodd" clip-rule="evenodd" d="M2.24756 4.62215C3.48885 4.62215 4.49511 3.58744 4.49511 2.31107C4.49511 1.0347 3.48885 0 2.24756 0C1.00627 0 0 1.0347 0 2.31107C0 3.58744 1.00627 4.62215 2.24756 4.62215ZM2.24756 15.7153C3.48885 15.7153 4.49511 14.6806 4.49511 13.4043C4.49511 12.1279 3.48885 11.0932 2.24756 11.0932C1.00627 11.0932 0 12.1279 0 13.4043C0 14.6806 1.00627 15.7153 2.24756 15.7153ZM4.49511 24.4974C4.49511 25.7738 3.48885 26.8085 2.24756 26.8085C1.00627 26.8085 0 25.7738 0 24.4974C0 23.2211 1.00627 22.1864 2.24756 22.1864C3.48885 22.1864 4.49511 23.2211 4.49511 24.4974ZM2.24756 37.9017C3.48885 37.9017 4.49511 36.867 4.49511 35.5906C4.49511 34.3142 3.48885 33.2795 2.24756 33.2795C1.00627 33.2795 0 34.3142 0 35.5906C0 36.867 1.00627 37.9017 2.24756 37.9017ZM4.49511 46.6836C4.49511 47.96 3.48885 48.9947 2.24756 48.9947C1.00627 48.9947 0 47.96 0 46.6836C0 45.4073 1.00627 44.3726 2.24756 44.3726C3.48885 44.3726 4.49511 45.4073 4.49511 46.6836ZM2.24756 60.088C3.48885 60.088 4.49511 59.0532 4.49511 57.7769C4.49511 56.5005 3.48885 55.4658 2.24756 55.4658C1.00627 55.4658 0 56.5005 0 57.7769C0 59.0532 1.00627 60.088 2.24756 60.088ZM4.49511 68.87C4.49511 70.1463 3.48885 71.181 2.24756 71.181C1.00627 71.181 0 70.1463 0 68.87C0 67.5936 1.00627 66.5589 2.24756 66.5589C3.48885 66.5589 4.49511 67.5936 4.49511 68.87ZM2.24756 82.2742C3.48885 82.2742 4.49511 81.2395 4.49511 79.9632C4.49511 78.6868 3.48885 77.6521 2.24756 77.6521C1.00627 77.6521 0 78.6868 0 79.9632C0 81.2395 1.00627 82.2742 2.24756 82.2742ZM4.49511 91.0563C4.49511 92.3327 3.48885 93.3674 2.24756 93.3674C1.00627 93.3674 0 92.3327 0 91.0563C0 89.78 1.00627 88.7453 2.24756 88.7453C3.48885 88.7453 4.49511 89.78 4.49511 91.0563ZM14.3844 4.62215C15.6257 4.62215 16.6319 3.58744 16.6319 2.31107C16.6319 1.0347 15.6257 0 14.3844 0C13.1431 0 12.1368 1.0347 12.1368 2.31107C12.1368 3.58744 13.1431 4.62215 14.3844 4.62215ZM16.6319 13.4043C16.6319 14.6806 15.6256 15.7153 14.3843 15.7153C13.1431 15.7153 12.1368 14.6806 12.1368 13.4043C12.1368 12.1279 13.1431 11.0932 14.3843 11.0932C15.6256 11.0932 16.6319 12.1279 16.6319 13.4043ZM14.3843 26.8085C15.6256 26.8085 16.6319 25.7738 16.6319 24.4974C16.6319 23.2211 15.6256 22.1864 14.3843 22.1864C13.1431 22.1864 12.1368 23.2211 12.1368 24.4974C12.1368 25.7738 13.1431 26.8085 14.3843 26.8085ZM16.6319 35.5906C16.6319 36.867 15.6256 37.9017 14.3843 37.9017C13.1431 37.9017 12.1368 36.867 12.1368 35.5906C12.1368 34.3142 13.1431 33.2795 14.3843 33.2795C15.6256 33.2795 16.6319 34.3142 16.6319 35.5906ZM14.3843 48.9947C15.6256 48.9947 16.6319 47.96 16.6319 46.6836C16.6319 45.4073 15.6256 44.3726 14.3843 44.3726C13.1431 44.3726 12.1368 45.4073 12.1368 46.6836C12.1368 47.96 13.1431 48.9947 14.3843 48.9947ZM16.6319 57.7769C16.6319 59.0532 15.6256 60.088 14.3843 60.088C13.1431 60.088 12.1368 59.0532 12.1368 57.7769C12.1368 56.5005 13.1431 55.4658 14.3843 55.4658C15.6256 55.4658 16.6319 56.5005 16.6319 57.7769ZM14.3843 71.181C15.6256 71.181 16.6319 70.1463 16.6319 68.87C16.6319 67.5936 15.6256 66.5589 14.3843 66.5589C13.1431 66.5589 12.1368 67.5936 12.1368 68.87C12.1368 70.1463 13.1431 71.181 14.3843 71.181ZM16.6319 79.9632C16.6319 81.2395 15.6256 82.2742 14.3843 82.2742C13.1431 82.2742 12.1368 81.2395 12.1368 79.9632C12.1368 78.6868 13.1431 77.6521 14.3843 77.6521C15.6256 77.6521 16.6319 78.6868 16.6319 79.9632ZM14.3843 93.3674C15.6256 93.3674 16.6319 92.3327 16.6319 91.0563C16.6319 89.78 15.6256 88.7453 14.3843 88.7453C13.1431 88.7453 12.1368 89.78 12.1368 91.0563C12.1368 92.3327 13.1431 93.3674 14.3843 93.3674ZM28.7687 2.31107C28.7687 3.58744 27.7625 4.62215 26.5212 4.62215C25.2799 4.62215 24.2736 3.58744 24.2736 2.31107C24.2736 1.0347 25.2799 0 26.5212 0C27.7625 0 28.7687 1.0347 28.7687 2.31107ZM26.5211 15.7153C27.7624 15.7153 28.7687 14.6806 28.7687 13.4043C28.7687 12.1279 27.7624 11.0932 26.5211 11.0932C25.2799 11.0932 24.2736 12.1279 24.2736 13.4043C24.2736 14.6806 25.2799 15.7153 26.5211 15.7153ZM28.7687 24.4974C28.7687 25.7738 27.7624 26.8085 26.5211 26.8085C25.2799 26.8085 24.2736 25.7738 24.2736 24.4974C24.2736 23.2211 25.2799 22.1864 26.5211 22.1864C27.7624 22.1864 28.7687 23.2211 28.7687 24.4974ZM26.5211 37.9017C27.7624 37.9017 28.7687 36.867 28.7687 35.5906C28.7687 34.3142 27.7624 33.2795 26.5211 33.2795C25.2799 33.2795 24.2736 34.3142 24.2736 35.5906C24.2736 36.867 25.2799 37.9017 26.5211 37.9017ZM28.7687 46.6836C28.7687 47.96 27.7624 48.9947 26.5211 48.9947C25.2799 48.9947 24.2736 47.96 24.2736 46.6836C24.2736 45.4073 25.2799 44.3726 26.5211 44.3726C27.7624 44.3726 28.7687 45.4073 28.7687 46.6836ZM26.5211 60.088C27.7624 60.088 28.7687 59.0532 28.7687 57.7769C28.7687 56.5005 27.7624 55.4658 26.5211 55.4658C25.2799 55.4658 24.2736 56.5005 24.2736 57.7769C24.2736 59.0532 25.2799 60.088 26.5211 60.088ZM28.7687 68.87C28.7687 70.1463 27.7624 71.181 26.5211 71.181C25.2799 71.181 24.2736 70.1463 24.2736 68.87C24.2736 67.5936 25.2799 66.5589 26.5211 66.5589C27.7624 66.5589 28.7687 67.5936 28.7687 68.87ZM26.5211 82.2742C27.7624 82.2742 28.7687 81.2395 28.7687 79.9632C28.7687 78.6868 27.7624 77.6521 26.5211 77.6521C25.2799 77.6521 24.2736 78.6868 24.2736 79.9632C24.2736 81.2395 25.2799 82.2742 26.5211 82.2742ZM28.7687 91.0563C28.7687 92.3327 27.7624 93.3674 26.5211 93.3674C25.2799 93.3674 24.2736 92.3327 24.2736 91.0563C24.2736 89.78 25.2799 88.7453 26.5211 88.7453C27.7624 88.7453 28.7687 89.78 28.7687 91.0563ZM38.658 4.62215C39.8993 4.62215 40.9055 3.58744 40.9055 2.31107C40.9055 1.0347 39.8993 0 38.658 0C37.4167 0 36.4104 1.0347 36.4104 2.31107C36.4104 3.58744 37.4167 4.62215 38.658 4.62215ZM40.9056 13.4043C40.9056 14.6806 39.8993 15.7153 38.658 15.7153C37.4167 15.7153 36.4105 14.6806 36.4105 13.4043C36.4105 12.1279 37.4167 11.0932 38.658 11.0932C39.8993 11.0932 40.9056 12.1279 40.9056 13.4043ZM38.658 26.8085C39.8993 26.8085 40.9056 25.7738 40.9056 24.4974C40.9056 23.2211 39.8993 22.1864 38.658 22.1864C37.4167 22.1864 36.4105 23.2211 36.4105 24.4974C36.4105 25.7738 37.4167 26.8085 38.658 26.8085ZM40.9056 35.5906C40.9056 36.867 39.8993 37.9017 38.658 37.9017C37.4167 37.9017 36.4105 36.867 36.4105 35.5906C36.4105 34.3142 37.4167 33.2795 38.658 33.2795C39.8993 33.2795 40.9056 34.3142 40.9056 35.5906ZM38.658 48.9947C39.8993 48.9947 40.9056 47.96 40.9056 46.6836C40.9056 45.4073 39.8993 44.3726 38.658 44.3726C37.4167 44.3726 36.4105 45.4073 36.4105 46.6836C36.4105 47.96 37.4167 48.9947 38.658 48.9947ZM40.9056 57.7769C40.9056 59.0532 39.8993 60.088 38.658 60.088C37.4167 60.088 36.4105 59.0532 36.4105 57.7769C36.4105 56.5005 37.4167 55.4658 38.658 55.4658C39.8993 55.4658 40.9056 56.5005 40.9056 57.7769ZM38.658 71.181C39.8993 71.181 40.9056 70.1463 40.9056 68.87C40.9056 67.5936 39.8993 66.5589 38.658 66.5589C37.4167 66.5589 36.4105 67.5936 36.4105 68.87C36.4105 70.1463 37.4167 71.181 38.658 71.181ZM40.9056 79.9632C40.9056 81.2395 39.8993 82.2742 38.658 82.2742C37.4167 82.2742 36.4105 81.2395 36.4105 79.9632C36.4105 78.6868 37.4167 77.6521 38.658 77.6521C39.8993 77.6521 40.9056 78.6868 40.9056 79.9632ZM38.658 93.3674C39.8993 93.3674 40.9056 92.3327 40.9056 91.0563C40.9056 89.78 39.8993 88.7453 38.658 88.7453C37.4167 88.7453 36.4105 89.78 36.4105 91.0563C36.4105 92.3327 37.4167 93.3674 38.658 93.3674ZM53.0423 2.31107C53.0423 3.58744 52.0361 4.62215 50.7948 4.62215C49.5535 4.62215 48.5472 3.58744 48.5472 2.31107C48.5472 1.0347 49.5535 0 50.7948 0C52.0361 0 53.0423 1.0347 53.0423 2.31107ZM50.7948 15.7153C52.0361 15.7153 53.0424 14.6806 53.0424 13.4043C53.0424 12.1279 52.0361 11.0932 50.7948 11.0932C49.5535 11.0932 48.5472 12.1279 48.5472 13.4043C48.5472 14.6806 49.5535 15.7153 50.7948 15.7153ZM53.0424 24.4974C53.0424 25.7738 52.0361 26.8085 50.7948 26.8085C49.5535 26.8085 48.5472 25.7738 48.5472 24.4974C48.5472 23.2211 49.5535 22.1864 50.7948 22.1864C52.0361 22.1864 53.0424 23.2211 53.0424 24.4974ZM50.7948 37.9017C52.0361 37.9017 53.0424 36.867 53.0424 35.5906C53.0424 34.3142 52.0361 33.2795 50.7948 33.2795C49.5535 33.2795 48.5472 34.3142 48.5472 35.5906C48.5472 36.867 49.5535 37.9017 50.7948 37.9017ZM53.0424 46.6836C53.0424 47.96 52.0361 48.9947 50.7948 48.9947C49.5535 48.9947 48.5472 47.96 48.5472 46.6836C48.5472 45.4073 49.5535 44.3726 50.7948 44.3726C52.0361 44.3726 53.0424 45.4073 53.0424 46.6836ZM50.7948 60.088C52.0361 60.088 53.0424 59.0532 53.0424 57.7769C53.0424 56.5005 52.0361 55.4658 50.7948 55.4658C49.5535 55.4658 48.5472 56.5005 48.5472 57.7769C48.5472 59.0532 49.5535 60.088 50.7948 60.088ZM53.0424 68.87C53.0424 70.1463 52.0361 71.181 50.7948 71.181C49.5535 71.181 48.5472 70.1463 48.5472 68.87C48.5472 67.5936 49.5535 66.5589 50.7948 66.5589C52.0361 66.5589 53.0424 67.5936 53.0424 68.87ZM50.7948 82.2742C52.0361 82.2742 53.0424 81.2395 53.0424 79.9632C53.0424 78.6868 52.0361 77.6521 50.7948 77.6521C49.5535 77.6521 48.5472 78.6868 48.5472 79.9632C48.5472 81.2395 49.5535 82.2742 50.7948 82.2742ZM53.0424 91.0563C53.0424 92.3327 52.0361 93.3674 50.7948 93.3674C49.5535 93.3674 48.5472 92.3327 48.5472 91.0563C48.5472 89.78 49.5535 88.7453 50.7948 88.7453C52.0361 88.7453 53.0424 89.78 53.0424 91.0563ZM62.9316 4.62215C64.1729 4.62215 65.1792 3.58744 65.1792 2.31107C65.1792 1.0347 64.1729 0 62.9316 0C61.6903 0 60.684 1.0347 60.684 2.31107C60.684 3.58744 61.6903 4.62215 62.9316 4.62215ZM65.1792 13.4043C65.1792 14.6806 64.1729 15.7153 62.9316 15.7153C61.6903 15.7153 60.684 14.6806 60.684 13.4043C60.684 12.1279 61.6903 11.0932 62.9316 11.0932C64.1729 11.0932 65.1792 12.1279 65.1792 13.4043ZM62.9316 26.8085C64.1729 26.8085 65.1792 25.7738 65.1792 24.4974C65.1792 23.2211 64.1729 22.1864 62.9316 22.1864C61.6903 22.1864 60.684 23.2211 60.684 24.4974C60.684 25.7738 61.6903 26.8085 62.9316 26.8085ZM65.1792 35.5906C65.1792 36.867 64.1729 37.9017 62.9316 37.9017C61.6903 37.9017 60.684 36.867 60.684 35.5906C60.684 34.3142 61.6903 33.2795 62.9316 33.2795C64.1729 33.2795 65.1792 34.3142 65.1792 35.5906ZM62.9316 48.9947C64.1729 48.9947 65.1792 47.96 65.1792 46.6836C65.1792 45.4073 64.1729 44.3726 62.9316 44.3726C61.6903 44.3726 60.684 45.4073 60.684 46.6836C60.684 47.96 61.6903 48.9947 62.9316 48.9947ZM65.1792 57.7769C65.1792 59.0532 64.1729 60.088 62.9316 60.088C61.6903 60.088 60.684 59.0532 60.684 57.7769C60.684 56.5005 61.6903 55.4658 62.9316 55.4658C64.1729 55.4658 65.1792 56.5005 65.1792 57.7769ZM62.9316 71.181C64.1729 71.181 65.1792 70.1463 65.1792 68.87C65.1792 67.5936 64.1729 66.5589 62.9316 66.5589C61.6903 66.5589 60.684 67.5936 60.684 68.87C60.684 70.1463 61.6903 71.181 62.9316 71.181ZM65.1792 79.9632C65.1792 81.2395 64.1729 82.2742 62.9316 82.2742C61.6903 82.2742 60.684 81.2395 60.684 79.9632C60.684 78.6868 61.6903 77.6521 62.9316 77.6521C64.1729 77.6521 65.1792 78.6868 65.1792 79.9632ZM62.9316 93.3674C64.1729 93.3674 65.1792 92.3327 65.1792 91.0563C65.1792 89.78 64.1729 88.7453 62.9316 88.7453C61.6903 88.7453 60.684 89.78 60.684 91.0563C60.684 92.3327 61.6903 93.3674 62.9316 93.3674ZM77.316 2.31107C77.316 3.58744 76.3097 4.62215 75.0684 4.62215C73.8271 4.62215 72.8208 3.58744 72.8208 2.31107C72.8208 1.0347 73.8271 0 75.0684 0C76.3097 0 77.316 1.0347 77.316 2.31107ZM75.0684 15.7153C76.3097 15.7153 77.316 14.6806 77.316 13.4043C77.316 12.1279 76.3097 11.0932 75.0684 11.0932C73.8271 11.0932 72.8208 12.1279 72.8208 13.4043C72.8208 14.6806 73.8271 15.7153 75.0684 15.7153ZM77.316 24.4974C77.316 25.7738 76.3097 26.8085 75.0684 26.8085C73.8271 26.8085 72.8208 25.7738 72.8208 24.4974C72.8208 23.2211 73.8271 22.1864 75.0684 22.1864C76.3097 22.1864 77.316 23.2211 77.316 24.4974ZM75.0684 37.9017C76.3097 37.9017 77.316 36.867 77.316 35.5906C77.316 34.3142 76.3097 33.2795 75.0684 33.2795C73.8271 33.2795 72.8208 34.3142 72.8208 35.5906C72.8208 36.867 73.8271 37.9017 75.0684 37.9017ZM77.316 46.6836C77.316 47.96 76.3097 48.9947 75.0684 48.9947C73.8271 48.9947 72.8208 47.96 72.8208 46.6836C72.8208 45.4073 73.8271 44.3726 75.0684 44.3726C76.3097 44.3726 77.316 45.4073 77.316 46.6836ZM75.0684 60.088C76.3097 60.088 77.316 59.0532 77.316 57.7769C77.316 56.5005 76.3097 55.4658 75.0684 55.4658C73.8271 55.4658 72.8208 56.5005 72.8208 57.7769C72.8208 59.0532 73.8271 60.088 75.0684 60.088ZM77.316 68.87C77.316 70.1463 76.3097 71.181 75.0684 71.181C73.8271 71.181 72.8208 70.1463 72.8208 68.87C72.8208 67.5936 73.8271 66.5589 75.0684 66.5589C76.3097 66.5589 77.316 67.5936 77.316 68.87ZM75.0684 82.2742C76.3097 82.2742 77.316 81.2395 77.316 79.9632C77.316 78.6868 76.3097 77.6521 75.0684 77.6521C73.8271 77.6521 72.8208 78.6868 72.8208 79.9632C72.8208 81.2395 73.8271 82.2742 75.0684 82.2742ZM77.316 91.0563C77.316 92.3327 76.3097 93.3674 75.0684 93.3674C73.8271 93.3674 72.8208 92.3327 72.8208 91.0563C72.8208 89.78 73.8271 88.7453 75.0684 88.7453C76.3097 88.7453 77.316 89.78 77.316 91.0563ZM87.2052 4.62215C88.4465 4.62215 89.4528 3.58744 89.4528 2.31107C89.4528 1.0347 88.4465 0 87.2052 0C85.9639 0 84.9577 1.0347 84.9577 2.31107C84.9577 3.58744 85.9639 4.62215 87.2052 4.62215ZM89.4527 13.4043C89.4527 14.6806 88.4465 15.7153 87.2052 15.7153C85.9639 15.7153 84.9576 14.6806 84.9576 13.4043C84.9576 12.1279 85.9639 11.0932 87.2052 11.0932C88.4465 11.0932 89.4527 12.1279 89.4527 13.4043ZM87.2052 26.8085C88.4465 26.8085 89.4527 25.7738 89.4527 24.4974C89.4527 23.2211 88.4465 22.1864 87.2052 22.1864C85.9639 22.1864 84.9576 23.2211 84.9576 24.4974C84.9576 25.7738 85.9639 26.8085 87.2052 26.8085ZM89.4527 35.5906C89.4527 36.867 88.4465 37.9017 87.2052 37.9017C85.9639 37.9017 84.9576 36.867 84.9576 35.5906C84.9576 34.3142 85.9639 33.2795 87.2052 33.2795C88.4465 33.2795 89.4527 34.3142 89.4527 35.5906ZM87.2052 48.9947C88.4465 48.9947 89.4527 47.96 89.4527 46.6836C89.4527 45.4073 88.4465 44.3726 87.2052 44.3726C85.9639 44.3726 84.9576 45.4073 84.9576 46.6836C84.9576 47.96 85.9639 48.9947 87.2052 48.9947ZM89.4527 57.7769C89.4527 59.0532 88.4465 60.088 87.2052 60.088C85.9639 60.088 84.9576 59.0532 84.9576 57.7769C84.9576 56.5005 85.9639 55.4658 87.2052 55.4658C88.4465 55.4658 89.4527 56.5005 89.4527 57.7769ZM87.2052 71.181C88.4465 71.181 89.4527 70.1463 89.4527 68.87C89.4527 67.5936 88.4465 66.5589 87.2052 66.5589C85.9639 66.5589 84.9576 67.5936 84.9576 68.87C84.9576 70.1463 85.9639 71.181 87.2052 71.181ZM89.4527 79.9632C89.4527 81.2395 88.4465 82.2742 87.2052 82.2742C85.9639 82.2742 84.9576 81.2395 84.9576 79.9632C84.9576 78.6868 85.9639 77.6521 87.2052 77.6521C88.4465 77.6521 89.4527 78.6868 89.4527 79.9632ZM87.2052 93.3674C88.4465 93.3674 89.4527 92.3327 89.4527 91.0563C89.4527 89.78 88.4465 88.7453 87.2052 88.7453C85.9639 88.7453 84.9576 89.78 84.9576 91.0563C84.9576 92.3327 85.9639 93.3674 87.2052 93.3674ZM101.59 2.31107C101.59 3.58744 100.583 4.62215 99.342 4.62215C98.1007 4.62215 97.0945 3.58744 97.0945 2.31107C97.0945 1.0347 98.1007 0 99.342 0C100.583 0 101.59 1.0347 101.59 2.31107ZM99.3421 15.7153C100.583 15.7153 101.59 14.6806 101.59 13.4043C101.59 12.1279 100.583 11.0932 99.3421 11.0932C98.1008 11.0932 97.0945 12.1279 97.0945 13.4043C97.0945 14.6806 98.1008 15.7153 99.3421 15.7153ZM101.59 24.4974C101.59 25.7738 100.583 26.8085 99.3421 26.8085C98.1008 26.8085 97.0945 25.7738 97.0945 24.4974C97.0945 23.2211 98.1008 22.1864 99.3421 22.1864C100.583 22.1864 101.59 23.2211 101.59 24.4974ZM99.3421 37.9017C100.583 37.9017 101.59 36.867 101.59 35.5906C101.59 34.3142 100.583 33.2795 99.3421 33.2795C98.1008 33.2795 97.0945 34.3142 97.0945 35.5906C97.0945 36.867 98.1008 37.9017 99.3421 37.9017ZM101.59 46.6836C101.59 47.96 100.583 48.9947 99.3421 48.9947C98.1008 48.9947 97.0945 47.96 97.0945 46.6836C97.0945 45.4073 98.1008 44.3726 99.3421 44.3726C100.583 44.3726 101.59 45.4073 101.59 46.6836ZM99.3421 60.088C100.583 60.088 101.59 59.0532 101.59 57.7769C101.59 56.5005 100.583 55.4658 99.3421 55.4658C98.1008 55.4658 97.0945 56.5005 97.0945 57.7769C97.0945 59.0532 98.1008 60.088 99.3421 60.088ZM101.59 68.87C101.59 70.1463 100.583 71.181 99.3421 71.181C98.1008 71.181 97.0945 70.1463 97.0945 68.87C97.0945 67.5936 98.1008 66.5589 99.3421 66.5589C100.583 66.5589 101.59 67.5936 101.59 68.87ZM99.3421 82.2742C100.583 82.2742 101.59 81.2395 101.59 79.9632C101.59 78.6868 100.583 77.6521 99.3421 77.6521C98.1008 77.6521 97.0945 78.6868 97.0945 79.9632C97.0945 81.2395 98.1008 82.2742 99.3421 82.2742ZM101.59 91.0563C101.59 92.3327 100.583 93.3674 99.3421 93.3674C98.1008 93.3674 97.0945 92.3327 97.0945 91.0563C97.0945 89.78 98.1008 88.7453 99.3421 88.7453C100.583 88.7453 101.59 89.78 101.59 91.0563ZM111.479 4.62215C112.72 4.62215 113.726 3.58744 113.726 2.31107C113.726 1.0347 112.72 0 111.479 0C110.238 0 109.231 1.0347 109.231 2.31107C109.231 3.58744 110.238 4.62215 111.479 4.62215ZM113.726 13.4043C113.726 14.6806 112.72 15.7153 111.479 15.7153C110.238 15.7153 109.231 14.6806 109.231 13.4043C109.231 12.1279 110.238 11.0932 111.479 11.0932C112.72 11.0932 113.726 12.1279 113.726 13.4043ZM111.479 26.8085C112.72 26.8085 113.726 25.7738 113.726 24.4974C113.726 23.2211 112.72 22.1864 111.479 22.1864C110.238 22.1864 109.231 23.2211 109.231 24.4974C109.231 25.7738 110.238 26.8085 111.479 26.8085ZM113.726 35.5906C113.726 36.867 112.72 37.9017 111.479 37.9017C110.238 37.9017 109.231 36.867 109.231 35.5906C109.231 34.3142 110.238 33.2795 111.479 33.2795C112.72 33.2795 113.726 34.3142 113.726 35.5906ZM111.479 48.9947C112.72 48.9947 113.726 47.96 113.726 46.6836C113.726 45.4073 112.72 44.3726 111.479 44.3726C110.238 44.3726 109.231 45.4073 109.231 46.6836C109.231 47.96 110.238 48.9947 111.479 48.9947ZM113.726 57.7769C113.726 59.0532 112.72 60.088 111.479 60.088C110.238 60.088 109.231 59.0532 109.231 57.7769C109.231 56.5005 110.238 55.4658 111.479 55.4658C112.72 55.4658 113.726 56.5005 113.726 57.7769ZM111.479 71.181C112.72 71.181 113.726 70.1463 113.726 68.87C113.726 67.5936 112.72 66.5589 111.479 66.5589C110.238 66.5589 109.231 67.5936 109.231 68.87C109.231 70.1463 110.238 71.181 111.479 71.181ZM113.726 79.9632C113.726 81.2395 112.72 82.2742 111.479 82.2742C110.238 82.2742 109.231 81.2395 109.231 79.9632C109.231 78.6868 110.238 77.6521 111.479 77.6521C112.72 77.6521 113.726 78.6868 113.726 79.9632ZM111.479 93.3674C112.72 93.3674 113.726 92.3327 113.726 91.0563C113.726 89.78 112.72 88.7453 111.479 88.7453C110.238 88.7453 109.231 89.78 109.231 91.0563C109.231 92.3327 110.238 93.3674 111.479 93.3674ZM125.863 2.31107C125.863 3.58744 124.857 4.62215 123.616 4.62215C122.374 4.62215 121.368 3.58744 121.368 2.31107C121.368 1.0347 122.374 0 123.616 0C124.857 0 125.863 1.0347 125.863 2.31107ZM123.616 15.7153C124.857 15.7153 125.863 14.6806 125.863 13.4043C125.863 12.1279 124.857 11.0932 123.616 11.0932C122.374 11.0932 121.368 12.1279 121.368 13.4043C121.368 14.6806 122.374 15.7153 123.616 15.7153ZM125.863 24.4974C125.863 25.7738 124.857 26.8085 123.616 26.8085C122.374 26.8085 121.368 25.7738 121.368 24.4974C121.368 23.2211 122.374 22.1864 123.616 22.1864C124.857 22.1864 125.863 23.2211 125.863 24.4974ZM123.616 37.9017C124.857 37.9017 125.863 36.867 125.863 35.5906C125.863 34.3142 124.857 33.2795 123.616 33.2795C122.374 33.2795 121.368 34.3142 121.368 35.5906C121.368 36.867 122.374 37.9017 123.616 37.9017ZM125.863 46.6836C125.863 47.96 124.857 48.9947 123.616 48.9947C122.374 48.9947 121.368 47.96 121.368 46.6836C121.368 45.4073 122.374 44.3726 123.616 44.3726C124.857 44.3726 125.863 45.4073 125.863 46.6836ZM123.616 60.088C124.857 60.088 125.863 59.0532 125.863 57.7769C125.863 56.5005 124.857 55.4658 123.616 55.4658C122.374 55.4658 121.368 56.5005 121.368 57.7769C121.368 59.0532 122.374 60.088 123.616 60.088ZM125.863 68.87C125.863 70.1463 124.857 71.181 123.616 71.181C122.374 71.181 121.368 70.1463 121.368 68.87C121.368 67.5936 122.374 66.5589 123.616 66.5589C124.857 66.5589 125.863 67.5936 125.863 68.87ZM123.616 82.2742C124.857 82.2742 125.863 81.2395 125.863 79.9632C125.863 78.6868 124.857 77.6521 123.616 77.6521C122.374 77.6521 121.368 78.6868 121.368 79.9632C121.368 81.2395 122.374 82.2742 123.616 82.2742ZM125.863 91.0563C125.863 92.3327 124.857 93.3674 123.616 93.3674C122.374 93.3674 121.368 92.3327 121.368 91.0563C121.368 89.78 122.374 88.7453 123.616 88.7453C124.857 88.7453 125.863 89.78 125.863 91.0563ZM135.752 4.62215C136.994 4.62215 138 3.58744 138 2.31107C138 1.0347 136.994 0 135.752 0C134.511 0 133.505 1.0347 133.505 2.31107C133.505 3.58744 134.511 4.62215 135.752 4.62215ZM138 13.4043C138 14.6806 136.994 15.7153 135.752 15.7153C134.511 15.7153 133.505 14.6806 133.505 13.4043C133.505 12.1279 134.511 11.0932 135.752 11.0932C136.994 11.0932 138 12.1279 138 13.4043ZM135.752 26.8085C136.994 26.8085 138 25.7738 138 24.4974C138 23.2211 136.994 22.1864 135.752 22.1864C134.511 22.1864 133.505 23.2211 133.505 24.4974C133.505 25.7738 134.511 26.8085 135.752 26.8085ZM138 35.5906C138 36.867 136.994 37.9017 135.752 37.9017C134.511 37.9017 133.505 36.867 133.505 35.5906C133.505 34.3142 134.511 33.2795 135.752 33.2795C136.994 33.2795 138 34.3142 138 35.5906ZM135.752 48.9947C136.994 48.9947 138 47.96 138 46.6836C138 45.4073 136.994 44.3726 135.752 44.3726C134.511 44.3726 133.505 45.4073 133.505 46.6836C133.505 47.96 134.511 48.9947 135.752 48.9947ZM138 57.7769C138 59.0532 136.994 60.088 135.752 60.088C134.511 60.088 133.505 59.0532 133.505 57.7769C133.505 56.5005 134.511 55.4658 135.752 55.4658C136.994 55.4658 138 56.5005 138 57.7769ZM135.752 71.181C136.994 71.181 138 70.1463 138 68.87C138 67.5936 136.994 66.5589 135.752 66.5589C134.511 66.5589 133.505 67.5936 133.505 68.87C133.505 70.1463 134.511 71.181 135.752 71.181ZM138 79.9632C138 81.2395 136.994 82.2742 135.752 82.2742C134.511 82.2742 133.505 81.2395 133.505 79.9632C133.505 78.6868 134.511 77.6521 135.752 77.6521C136.994 77.6521 138 78.6868 138 79.9632ZM135.752 93.3674C136.994 93.3674 138 92.3327 138 91.0563C138 89.78 136.994 88.7453 135.752 88.7453C134.511 88.7453 133.505 89.78 133.505 91.0563C133.505 92.3327 134.511 93.3674 135.752 93.3674Z" fill="url(#paint0_linear)"/>
<defs>
<linearGradient id="paint0_linear" x1="2.82273" y1="46.6837" x2="135.491" y2="46.6837" gradientUnits="userSpaceOnUse">
<stop stop-color="#5C52CC"/>
<stop offset="1" stop-color="#57FFFE"/>
</linearGradient>
</defs>
</svg>
