<svg width="18" height="18" viewBox="0 0 18 18" fill="none" xmlns="http://www.w3.org/2000/svg">
<path fill-rule="evenodd" clip-rule="evenodd" d="M11.71 11H12.5L17.49 16L16 17.49L11 12.5V11.71L10.73 11.43C9.59 12.41 8.11 13 6.5 13C2.91 13 0 10.09 0 6.5C0 2.91 2.91 0 6.5 0C10.09 0 13 2.91 13 6.5C13 8.11 12.41 9.59 11.43 10.73L11.71 11ZM2.0003 6.5C2.0003 8.99 4.0103 11 6.5003 11C8.9903 11 11.0003 8.99 11.0003 6.5C11.0003 4.01 8.9903 2 6.5003 2C4.0103 2 2.0003 4.01 2.0003 6.5Z" fill="#212121" fill-opacity="0.86"/>
</svg>
