<svg width="117" height="49" viewBox="0 0 117 49" fill="none" xmlns="http://www.w3.org/2000/svg">
<path fill-rule="evenodd" clip-rule="evenodd" d="M1.89312 48.1703C2.93867 48.1703 3.78625 47.2987 3.78625 46.2236C3.78625 45.1486 2.93867 44.277 1.89312 44.277C0.847573 44.277 -7.37249e-06 45.1486 -7.46389e-06 46.2236C-7.5553e-06 47.2987 0.847572 48.1703 1.89312 48.1703ZM3.78638 31.4647C3.78638 32.5397 2.9388 33.4113 1.89325 33.4113C0.847703 33.4113 0.000123399 32.5397 0.000123491 31.4647C0.000123582 30.3896 0.847704 29.518 1.89325 29.518C2.9388 29.518 3.78638 30.3896 3.78638 31.4647ZM1.89326 18.6523C2.93881 18.6523 3.78639 17.7808 3.78639 16.7057C3.78639 15.6306 2.93881 14.759 1.89326 14.759C0.847712 14.759 0.000132466 15.6306 0.000132375 16.7057C0.000132283 17.7808 0.847712 18.6523 1.89326 18.6523ZM1.89325 3.89329C2.93879 3.89329 3.78637 3.02176 3.78637 1.94666C3.78637 0.871568 2.93879 3.17768e-05 1.89325 3.16828e-05C0.847698 3.15888e-05 0.000118462 0.871568 0.000118371 1.94666C0.000118279 3.02175 0.847698 3.89329 1.89325 3.89329ZM14.0093 1.94666C14.0093 3.02176 13.1617 3.89329 12.1162 3.89329C11.0706 3.89329 10.2231 3.02175 10.2231 1.94666C10.2231 0.871569 11.0706 3.25078e-05 12.1162 3.26018e-05C13.1617 3.26958e-05 14.0093 0.871569 14.0093 1.94666ZM12.1162 18.6523C13.1617 18.6523 14.0093 17.7808 14.0093 16.7057C14.0093 15.6306 13.1617 14.759 12.1162 14.759C11.0707 14.759 10.2231 15.6306 10.2231 16.7057C10.2231 17.7808 11.0707 18.6523 12.1162 18.6523ZM14.0093 31.4647C14.0093 32.5397 13.1618 33.4113 12.1162 33.4113C11.0707 33.4113 10.2231 32.5397 10.2231 31.4647C10.2231 30.3896 11.0707 29.518 12.1162 29.518C13.1618 29.518 14.0093 30.3896 14.0093 31.4647ZM12.1161 48.1703C13.1616 48.1703 14.0092 47.2987 14.0092 46.2236C14.0092 45.1486 13.1616 44.277 12.1161 44.277C11.0705 44.277 10.2229 45.1486 10.2229 46.2236C10.2229 47.2987 11.0705 48.1703 12.1161 48.1703ZM24.2323 1.94666C24.2323 3.02176 23.3847 3.89329 22.3391 3.89329C21.2936 3.89329 20.446 3.02175 20.446 1.94666C20.446 0.87157 21.2936 3.34268e-05 22.3391 3.35208e-05C23.3847 3.36147e-05 24.2323 0.87157 24.2323 1.94666ZM22.3391 18.6523C23.3847 18.6523 24.2323 17.7808 24.2323 16.7057C24.2323 15.6306 23.3847 14.759 22.3391 14.759C21.2936 14.759 20.446 15.6306 20.446 16.7057C20.446 17.7808 21.2936 18.6523 22.3391 18.6523ZM24.2323 31.4647C24.2323 32.5397 23.3847 33.4113 22.3392 33.4113C21.2936 33.4113 20.446 32.5397 20.446 31.4647C20.446 30.3896 21.2936 29.518 22.3392 29.518C23.3847 29.518 24.2323 30.3896 24.2323 31.4647ZM22.339 48.1703C23.3846 48.1703 24.2321 47.2987 24.2321 46.2236C24.2321 45.1486 23.3846 44.277 22.339 44.277C21.2935 44.277 20.4459 45.1486 20.4459 46.2236C20.4459 47.2987 21.2935 48.1703 22.339 48.1703ZM34.4552 1.94667C34.4552 3.02176 33.6076 3.8933 32.5621 3.8933C31.5165 3.8933 30.669 3.02176 30.669 1.94667C30.669 0.871574 31.5165 3.81604e-05 32.5621 3.82544e-05C33.6076 3.83484e-05 34.4552 0.871575 34.4552 1.94667ZM32.5618 18.6523C33.6074 18.6523 34.455 17.7808 34.455 16.7057C34.455 15.6306 33.6074 14.759 32.5618 14.759C31.5163 14.759 30.6687 15.6306 30.6687 16.7057C30.6687 17.7808 31.5163 18.6523 32.5618 18.6523ZM34.455 31.4646C34.455 32.5397 33.6074 33.4113 32.5618 33.4113C31.5163 33.4113 30.6687 32.5397 30.6687 31.4646C30.6687 30.3896 31.5163 29.518 32.5618 29.518C33.6074 29.518 34.455 30.3896 34.455 31.4646ZM32.5617 48.1703C33.6073 48.1703 34.4548 47.2987 34.4548 46.2236C34.4548 45.1486 33.6073 44.277 32.5617 44.277C31.5162 44.277 30.6686 45.1486 30.6686 46.2236C30.6686 47.2987 31.5162 48.1703 32.5617 48.1703ZM44.6779 1.94666C44.6779 3.02176 43.8303 3.89329 42.7848 3.89329C41.7392 3.89329 40.8917 3.02175 40.8917 1.94666C40.8917 0.871568 41.7392 3.145e-05 42.7848 3.1544e-05C43.8303 3.1638e-05 44.6779 0.871568 44.6779 1.94666ZM42.7848 18.6523C43.8303 18.6523 44.6779 17.7807 44.6779 16.7057C44.6779 15.6306 43.8303 14.759 42.7848 14.759C41.7392 14.759 40.8917 15.6306 40.8917 16.7057C40.8917 17.7807 41.7392 18.6523 42.7848 18.6523ZM44.6779 31.4647C44.6779 32.5397 43.8303 33.4113 42.7848 33.4113C41.7392 33.4113 40.8917 32.5397 40.8917 31.4647C40.8917 30.3896 41.7392 29.518 42.7848 29.518C43.8303 29.518 44.6779 30.3896 44.6779 31.4647ZM42.7847 48.1703C43.8302 48.1703 44.6778 47.2987 44.6778 46.2236C44.6778 45.1486 43.8302 44.277 42.7847 44.277C41.7391 44.277 40.8915 45.1486 40.8915 46.2236C40.8915 47.2987 41.7391 48.1703 42.7847 48.1703ZM54.9009 1.94666C54.9009 3.02176 54.0533 3.89329 53.0077 3.89329C51.9622 3.89329 51.1146 3.02175 51.1146 1.94666C51.1146 0.871569 51.9622 3.2369e-05 53.0077 3.2463e-05C54.0533 3.2557e-05 54.9009 0.871569 54.9009 1.94666ZM53.0077 18.6523C54.0533 18.6523 54.9009 17.7808 54.9009 16.7057C54.9009 15.6306 54.0533 14.759 53.0077 14.759C51.9622 14.759 51.1146 15.6306 51.1146 16.7057C51.1146 17.7808 51.9622 18.6523 53.0077 18.6523ZM54.9009 31.4646C54.9009 32.5397 54.0533 33.4113 53.0077 33.4113C51.9622 33.4113 51.1146 32.5397 51.1146 31.4646C51.1146 30.3896 51.9622 29.518 53.0077 29.518C54.0533 29.518 54.9009 30.3896 54.9009 31.4646ZM53.0076 48.1703C54.0531 48.1703 54.9007 47.2987 54.9007 46.2236C54.9007 45.1486 54.0531 44.277 53.0076 44.277C51.9621 44.277 51.1145 45.1486 51.1145 46.2236C51.1145 47.2987 51.9621 48.1703 53.0076 48.1703ZM65.1238 1.94666C65.1238 3.02176 64.2762 3.89329 63.2307 3.89329C62.1851 3.89329 61.3375 3.02175 61.3375 1.94666C61.3375 0.871569 62.1851 3.3288e-05 63.2307 3.33819e-05C64.2762 3.34759e-05 65.1238 0.87157 65.1238 1.94666ZM63.2307 18.6523C64.2762 18.6523 65.1238 17.7808 65.1238 16.7057C65.1238 15.6306 64.2762 14.759 63.2307 14.759C62.1851 14.759 61.3375 15.6306 61.3375 16.7057C61.3375 17.7808 62.1851 18.6523 63.2307 18.6523ZM65.1238 31.4647C65.1238 32.5397 64.2762 33.4113 63.2307 33.4113C62.1851 33.4113 61.3375 32.5397 61.3375 31.4647C61.3375 30.3896 62.1851 29.518 63.2307 29.518C64.2762 29.518 65.1238 30.3896 65.1238 31.4647ZM63.2305 48.1703C64.2761 48.1703 65.1237 47.2987 65.1237 46.2236C65.1237 45.1486 64.2761 44.277 63.2305 44.277C62.185 44.277 61.3374 45.1486 61.3374 46.2236C61.3374 47.2987 62.185 48.1703 63.2305 48.1703ZM75.3465 1.94667C75.3465 3.02176 74.4989 3.8933 73.4534 3.8933C72.4078 3.8933 71.5602 3.02176 71.5602 1.94667C71.5602 0.871574 72.4078 3.80216e-05 73.4534 3.81156e-05C74.4989 3.82096e-05 75.3465 0.871575 75.3465 1.94667ZM73.4534 18.6523C74.4989 18.6523 75.3465 17.7808 75.3465 16.7057C75.3465 15.6306 74.4989 14.759 73.4534 14.759C72.4078 14.759 71.5602 15.6306 71.5602 16.7057C71.5602 17.7808 72.4078 18.6523 73.4534 18.6523ZM75.3465 31.4647C75.3465 32.5397 74.4989 33.4113 73.4534 33.4113C72.4078 33.4113 71.5602 32.5397 71.5602 31.4647C71.5602 30.3896 72.4078 29.518 73.4534 29.518C74.4989 29.518 75.3465 30.3896 75.3465 31.4647ZM73.4532 48.1703C74.4988 48.1703 75.3464 47.2987 75.3464 46.2236C75.3464 45.1486 74.4988 44.277 73.4532 44.277C72.4077 44.277 71.5601 45.1486 71.5601 46.2236C71.5601 47.2987 72.4077 48.1703 73.4532 48.1703ZM85.5693 1.94666C85.5693 3.02176 84.7217 3.89329 83.6762 3.89329C82.6306 3.89329 81.7831 3.02176 81.7831 1.94666C81.7831 0.871571 82.6306 3.51259e-05 83.6762 3.52199e-05C84.7217 3.53138e-05 85.5693 0.871572 85.5693 1.94666ZM83.6762 18.6523C84.7217 18.6523 85.5693 17.7807 85.5693 16.7057C85.5693 15.6306 84.7217 14.759 83.6762 14.759C82.6306 14.759 81.7831 15.6306 81.7831 16.7057C81.7831 17.7807 82.6306 18.6523 83.6762 18.6523ZM85.5693 31.4647C85.5693 32.5397 84.7217 33.4113 83.6762 33.4113C82.6306 33.4113 81.7831 32.5397 81.7831 31.4647C81.7831 30.3896 82.6306 29.518 83.6762 29.518C84.7217 29.518 85.5693 30.3896 85.5693 31.4647ZM83.6762 48.1703C84.7217 48.1703 85.5693 47.2987 85.5693 46.2236C85.5693 45.1486 84.7217 44.277 83.6762 44.277C82.6306 44.277 81.7831 45.1486 81.7831 46.2236C81.7831 47.2987 82.6306 48.1703 83.6762 48.1703ZM95.7923 1.94666C95.7923 3.02176 94.9447 3.89329 93.8991 3.89329C92.8536 3.89329 92.006 3.02175 92.006 1.94666C92.006 0.871568 92.8536 3.22301e-05 93.8991 3.23241e-05C94.9447 3.24181e-05 95.7923 0.871569 95.7923 1.94666ZM93.8991 18.6523C94.9447 18.6523 95.7923 17.7808 95.7923 16.7057C95.7923 15.6306 94.9447 14.759 93.8991 14.759C92.8536 14.759 92.006 15.6306 92.006 16.7057C92.006 17.7808 92.8536 18.6523 93.8991 18.6523ZM95.7923 31.4647C95.7923 32.5397 94.9447 33.4113 93.8991 33.4113C92.8536 33.4113 92.006 32.5397 92.006 31.4647C92.006 30.3896 92.8536 29.518 93.8991 29.518C94.9447 29.518 95.7923 30.3896 95.7923 31.4647ZM93.8991 48.1703C94.9447 48.1703 95.7923 47.2987 95.7923 46.2236C95.7923 45.1486 94.9447 44.277 93.8991 44.277C92.8536 44.277 92.006 45.1486 92.006 46.2236C92.006 47.2987 92.8536 48.1703 93.8991 48.1703ZM106.015 1.94666C106.015 3.02176 105.168 3.89329 104.122 3.89329C103.077 3.89329 102.229 3.02175 102.229 1.94666C102.229 0.871569 103.077 3.31491e-05 104.122 3.32431e-05C105.168 3.33371e-05 106.015 0.87157 106.015 1.94666ZM104.122 18.6523C105.168 18.6523 106.015 17.7808 106.015 16.7057C106.015 15.6306 105.168 14.759 104.122 14.759C103.077 14.759 102.229 15.6306 102.229 16.7057C102.229 17.7808 103.077 18.6523 104.122 18.6523ZM106.015 31.4647C106.015 32.5397 105.168 33.4113 104.122 33.4113C103.077 33.4113 102.229 32.5397 102.229 31.4647C102.229 30.3896 103.077 29.518 104.122 29.518C105.168 29.518 106.015 30.3896 106.015 31.4647ZM104.122 48.1703C105.168 48.1703 106.015 47.2987 106.015 46.2236C106.015 45.1486 105.168 44.277 104.122 44.277C103.077 44.277 102.229 45.1486 102.229 46.2236C102.229 47.2987 103.077 48.1703 104.122 48.1703ZM116.238 1.94667C116.238 3.02176 115.391 3.8933 114.345 3.8933C113.299 3.8933 112.452 3.02176 112.452 1.94667C112.452 0.871574 113.299 3.78828e-05 114.345 3.79768e-05C115.391 3.80708e-05 116.238 0.871574 116.238 1.94667ZM114.345 18.6523C115.391 18.6523 116.238 17.7808 116.238 16.7057C116.238 15.6306 115.391 14.759 114.345 14.759C113.299 14.759 112.452 15.6306 112.452 16.7057C112.452 17.7808 113.299 18.6523 114.345 18.6523ZM116.238 31.4647C116.238 32.5397 115.391 33.4113 114.345 33.4113C113.3 33.4113 112.452 32.5397 112.452 31.4647C112.452 30.3896 113.3 29.518 114.345 29.518C115.391 29.518 116.238 30.3896 116.238 31.4647ZM114.345 48.1703C115.391 48.1703 116.238 47.2987 116.238 46.2236C116.238 45.1486 115.391 44.277 114.345 44.277C113.299 44.277 112.452 45.1486 112.452 46.2236C112.452 47.2987 113.299 48.1703 114.345 48.1703Z" fill="url(#paint0_linear)"/>
<defs>
<linearGradient id="paint0_linear" x1="113.861" y1="24.0852" x2="2.11342" y2="24.0852" gradientUnits="userSpaceOnUse">
<stop stop-color="#5C52CC"/>
<stop offset="1" stop-color="#57FFFE"/>
</linearGradient>
</defs>
</svg>
